<?xml version="1.0" encoding="utf-8"?>
<!-- Generator: Adobe Illustrator 19.0.0, SVG Export Plug-In . SVG Version: 6.00 Build 0)  -->
<svg version="1.1" id="Layer_1" xmlns="http://www.w3.org/2000/svg" xmlns:xlink="http://www.w3.org/1999/xlink" x="0px" y="0px"
	 viewBox="-55 11 138 39" style="enable-background:new -55 11 138 39;" xml:space="preserve">
<style type="text/css">
	.st0{fill:#FFDF45;}
</style>
<path class="st0" d="M-44.3,43.8l0.6,0.3c2.5,1.5,5.3,2.2,8.1,2.2l0,0c8.8,0,16-7.2,16-16c0-4.2-1.7-8.3-4.7-11.3s-7-4.7-11.3-4.7
	c-8.8,0-16,7.2-15.9,16.1c0,3,0.9,5.9,2.4,8.4l0.4,0.6l-1.6,5.9L-44.3,43.8z"/>
<path d="M-22.6,17.4C-26,13.9-30.7,12-35.5,12c-10.2,0-18.4,8.3-18.3,18.4c0,3.2,0.9,6.3,2.4,9.1L-54,49l9.7-2.5
	c2.7,1.5,5.7,2.2,8.7,2.2l0,0c10.1,0,18.3-8.3,18.3-18.4C-17.3,25.4-19.2,20.8-22.6,17.4z M-35.5,45.6L-35.5,45.6
	c-2.7,0-5.4-0.7-7.7-2.1l-0.6-0.3l-5.8,1.5l1.5-5.7l-0.4-0.6c-4.4-7.1-2.3-16.5,4.9-20.9s16.5-2.3,20.9,4.9s2.3,16.5-4.9,20.9
	C-29.9,44.8-32.7,45.6-35.5,45.6z M-26.7,34.5l-1.1-0.5c0,0-1.6-0.7-2.6-1.2c-0.1,0-0.2-0.1-0.3-0.1c-0.3,0-0.5,0.1-0.7,0.2l0,0
	c0,0-0.1,0.1-1.5,1.7c-0.1,0.2-0.3,0.3-0.5,0.3h-0.1c-0.1,0-0.3-0.1-0.4-0.2l-0.5-0.2l0,0c-1.1-0.5-2.1-1.1-2.9-1.9
	c-0.2-0.2-0.5-0.4-0.7-0.6c-0.7-0.7-1.4-1.5-1.9-2.4l-0.1-0.2c-0.1-0.1-0.1-0.2-0.2-0.4c0-0.2,0-0.4,0.1-0.5c0,0,0.4-0.5,0.7-0.8
	c0.2-0.2,0.3-0.5,0.5-0.7c0.2-0.3,0.3-0.7,0.2-1c-0.1-0.5-1.3-3.2-1.6-3.8c-0.2-0.3-0.4-0.4-0.7-0.5h-0.3c-0.2,0-0.5,0-0.8,0
	c-0.2,0-0.4,0.1-0.6,0.1l-0.1,0.1c-0.2,0.1-0.4,0.3-0.6,0.4c-0.2,0.2-0.3,0.4-0.5,0.6c-0.7,0.9-1.1,2-1.1,3.1l0,0
	c0,0.8,0.2,1.6,0.5,2.3l0.1,0.3c0.9,1.9,2.1,3.6,3.7,5.1l0.4,0.4c0.3,0.3,0.6,0.5,0.8,0.8c2.1,1.8,4.5,3.1,7.2,3.8
	c0.3,0.1,0.7,0.1,1,0.2l0,0c0.3,0,0.7,0,1,0c0.5,0,1.1-0.2,1.5-0.4c0.3-0.2,0.5-0.2,0.7-0.4l0.2-0.2c0.2-0.2,0.4-0.3,0.6-0.5
	s0.4-0.4,0.5-0.6c0.2-0.4,0.3-0.9,0.4-1.4c0-0.2,0-0.5,0-0.7C-26.4,34.7-26.5,34.6-26.7,34.5z"/>
<path d="M1.2,34.5L1.2,34.5l-2.8-10h-2.1l-2.6,10h-0.1l-2.3-10h-2.5l3.6,13.4h2.3l2.7-9.5h0.1l2.7,9.5h2.2l3.5-13.3H3.5L1.2,34.5z
	 M13.4,27.5c-0.7,0-1.4,0.2-2,0.5c-0.5,0.3-1,0.8-1.2,1.3H10v-5.5H7.7v14.1H10V32c0-0.7,0.2-1.3,0.7-1.8s1.1-0.7,1.8-0.7
	c0.6,0,1.2,0.2,1.6,0.6c0.4,0.5,0.6,1.1,0.5,1.7v6H17v-6.5c0.1-1-0.3-2-0.9-2.8C15.4,27.8,14.4,27.5,13.4,27.5L13.4,27.5z
	 M23.4,27.5c-1.1,0-2.1,0.2-3,0.8c-0.7,0.5-1.2,1.3-1.3,2.1h2.2c0.1-0.3,0.4-0.6,0.7-0.8c0.4-0.2,0.9-0.3,1.3-0.3
	c0.5,0,1,0.1,1.4,0.4c0.3,0.3,0.5,0.7,0.5,1.2v0.9L22.6,32c-1,0-2,0.3-2.9,0.9c-0.7,0.5-1,1.3-1,2.2c0,0.8,0.3,1.6,0.9,2.2
	c0.7,0.6,1.5,0.9,2.4,0.8c0.6,0,1.2-0.1,1.8-0.4c0.5-0.3,0.9-0.7,1.2-1.1h0.2V38h2.2v-7c0.1-1-0.3-1.9-1.1-2.5
	C25.5,27.7,24.4,27.4,23.4,27.5L23.4,27.5z M25.2,34.2c0,0.6-0.2,1.1-0.7,1.5s-1.1,0.6-1.7,0.6c-0.5,0-0.9-0.1-1.3-0.4
	c-0.3-0.2-0.5-0.6-0.5-1c0-0.8,0.6-1.3,1.9-1.4l2.3-0.1L25.2,34.2L25.2,34.2z M32.8,25.3h-2.3v2.5h-1.7v1.8h1.7v5.5
	c-0.1,0.8,0.2,1.6,0.8,2.1c0.7,0.5,1.6,0.7,2.5,0.6c0.4,0,0.8,0,1.2-0.1V36c-0.3,0-0.5,0-0.8,0c-0.4,0-0.8-0.1-1.1-0.3
	c-0.2-0.3-0.4-0.7-0.3-1.1v-5H35v-1.8h-2.2C32.8,27.8,32.8,25.3,32.8,25.3z M42,32.1l-1.8-0.4c-0.4-0.1-0.8-0.2-1.1-0.5
	c-0.2-0.2-0.4-0.4-0.4-0.7c0-0.4,0.2-0.7,0.5-0.9c0.4-0.2,0.9-0.4,1.3-0.3c0.5,0,0.9,0.1,1.3,0.3c0.3,0.2,0.5,0.5,0.6,0.9h2.2
	c0-0.9-0.5-1.7-1.2-2.2c-0.9-0.5-1.9-0.8-2.9-0.8s-2.1,0.3-2.9,0.9c-0.7,0.5-1.1,1.4-1.1,2.2c0,0.7,0.2,1.3,0.7,1.8
	c0.6,0.5,1.4,0.9,2.2,1l1.8,0.4c0.9,0.2,1.4,0.6,1.4,1.2c0,0.4-0.2,0.7-0.5,0.9c-0.4,0.2-0.9,0.4-1.4,0.3c-0.5,0-1-0.1-1.4-0.3
	c-0.3-0.2-0.6-0.5-0.7-0.9h-2.3c0,0.9,0.5,1.7,1.3,2.2c0.9,0.6,2,0.8,3,0.8c1.1,0,2.2-0.3,3.1-0.9c0.8-0.5,1.2-1.4,1.2-2.4
	c0-0.7-0.2-1.3-0.7-1.8C43.4,32.5,42.7,32.2,42,32.1L42,32.1z M50.4,24.5l-4.8,13.4H48l1.2-3.4h5l1.1,3.4h2.6l-4.8-13.4H50.4
	L50.4,24.5z M49.8,32.6l1.8-5.5h0.2l1.8,5.5H49.8L49.8,32.6z M65,27.6c-0.7,0-1.3,0.2-1.9,0.5c-0.5,0.3-1,0.8-1.3,1.4h-0.2v-1.7
	h-2.2v13.4h2.3v-4.8h0.2c0.3,0.5,0.7,1,1.2,1.3c0.6,0.3,1.2,0.5,1.9,0.4c1.2,0,2.3-0.5,3-1.4c0.8-1.1,1.2-2.5,1.1-3.8
	c0.1-1.4-0.3-2.7-1.1-3.8C67.3,28,66.1,27.5,65,27.6L65,27.6z M66.1,35.2c-0.8,1-2.4,1.2-3.4,0.3c-0.1-0.1-0.2-0.2-0.3-0.3
	c-0.5-0.7-0.7-1.5-0.7-2.4c0-0.9,0.2-1.7,0.7-2.4c0.9-1,2.4-1.2,3.4-0.3c0.1,0.1,0.2,0.2,0.3,0.3c0.5,0.7,0.7,1.6,0.7,2.4
	C66.8,33.7,66.6,34.5,66.1,35.2L66.1,35.2z M79.6,29c-0.7-0.9-1.9-1.5-3.1-1.4c-0.7,0-1.3,0.2-1.9,0.5c-0.5,0.3-1,0.8-1.3,1.4h-0.2
	v-1.7H71v13.4h2.3v-4.8h0.2c0.2,0.5,0.6,1,1.2,1.3c0.6,0.3,1.2,0.5,1.9,0.4c1.2,0.1,2.3-0.5,3.1-1.4c0.8-1.1,1.2-2.5,1.1-3.8
	C80.8,31.4,80.4,30.1,79.6,29z M77.7,35.2c-0.8,1-2.4,1.2-3.4,0.3c-0.1-0.1-0.2-0.2-0.3-0.3c-0.5-0.7-0.7-1.5-0.7-2.4
	c0-0.9,0.2-1.7,0.7-2.4c0.9-1,2.4-1.2,3.4-0.3c0.1,0.1,0.2,0.2,0.3,0.3c0.5,0.7,0.7,1.6,0.7,2.4C78.4,33.7,78.1,34.5,77.7,35.2
	L77.7,35.2z"/>
</svg>
