<?xml version="1.0" encoding="utf-8"?>
<!-- Generator: Adobe Illustrator 15.0.0, SVG Export Plug-In . SVG Version: 6.00 Build 0)  -->
<!DOCTYPE svg PUBLIC "-//W3C//DTD SVG 1.1//EN" "http://www.w3.org/Graphics/SVG/1.1/DTD/svg11.dtd">
<svg version="1.1" id="Layer_1" xmlns="http://www.w3.org/2000/svg" xmlns:xlink="http://www.w3.org/1999/xlink" x="0px" y="0px"
	 width="200px" height="60px" viewBox="0 0 200 60" enable-background="new 0 0 200 60" xml:space="preserve">
<g>
	<g enable-background="new    ">
		<path d="M96.27,44.035c0.505,0.379,1.063,0.719,1.674,1.021s1.234,0.555,1.873,0.758s1.28,0.357,1.926,0.463
			s1.263,0.158,1.853,0.158c2.287,0,3.999-0.442,5.136-1.326s1.705-2.154,1.705-3.81c0-0.801-0.134-1.498-0.399-2.095
			c-0.268-0.597-0.682-1.154-1.242-1.674c-0.562-0.519-1.271-1.034-2.126-1.547c-0.856-0.512-1.866-1.091-3.031-1.736
			c-1.291-0.701-2.396-1.364-3.315-1.989c-0.919-0.624-1.67-1.263-2.252-1.915c-0.583-0.653-1.011-1.358-1.284-2.116
			s-0.41-1.621-0.41-2.589c0-1.221,0.26-2.315,0.778-3.284c0.52-0.968,1.221-1.792,2.105-2.473c0.884-0.68,1.919-1.203,3.104-1.568
			s2.452-0.547,3.8-0.547c2.371,0,4.356,0.33,5.956,0.989v3.094c-1.782-1.024-3.873-1.537-6.272-1.537
			c-0.898,0-1.743,0.109-2.536,0.326c-0.793,0.218-1.487,0.537-2.084,0.958c-0.597,0.421-1.066,0.944-1.41,1.568
			c-0.344,0.625-0.516,1.351-0.516,2.179c0,0.786,0.115,1.463,0.348,2.031c0.231,0.568,0.603,1.105,1.115,1.61
			c0.512,0.505,1.186,1.007,2.021,1.504c0.835,0.499,1.855,1.07,3.063,1.716c1.263,0.674,2.364,1.33,3.305,1.968
			c0.94,0.639,1.723,1.306,2.348,2c0.624,0.694,1.091,1.432,1.399,2.21c0.309,0.779,0.463,1.646,0.463,2.6
			c0,1.319-0.245,2.48-0.736,3.483c-0.491,1.004-1.179,1.835-2.063,2.495c-0.884,0.659-1.937,1.157-3.157,1.494
			s-2.561,0.505-4.021,0.505c-0.477,0-1.045-0.038-1.705-0.115c-0.659-0.077-1.325-0.189-1.999-0.337s-1.315-0.323-1.926-0.526
			s-1.105-0.424-1.484-0.663V44.035z"/>
	</g>
	<g enable-background="new    ">
		<path d="M124.586,48.354c-0.938,0.469-1.959,0.703-3.067,0.703c-3.521,0-5.281-2.03-5.281-6.092v-13.78h-3.834v-2.385h3.834
			v-5.495l2.726-0.895v6.39h5.623v2.385h-5.623v13.354c0,1.478,0.241,2.542,0.725,3.195c0.482,0.653,1.299,0.979,2.449,0.979
			c0.852,0,1.668-0.256,2.449-0.767V48.354z"/>
	</g>
	<g enable-background="new    ">
		<path d="M140.038,48.609v-3.876h-0.086c-0.71,1.392-1.679,2.471-2.907,3.237s-2.616,1.149-4.164,1.149
			c-1.051,0-1.998-0.148-2.843-0.447c-0.845-0.298-1.563-0.72-2.151-1.267c-0.59-0.547-1.044-1.204-1.363-1.971
			s-0.479-1.611-0.479-2.534c0-1.974,0.61-3.546,1.832-4.718c1.221-1.172,3.067-1.935,5.538-2.29l6.624-0.958
			c0-4.188-1.626-6.283-4.878-6.283c-2.542,0-4.898,0.93-7.071,2.79V28.46c0.454-0.326,0.97-0.621,1.544-0.884
			c0.575-0.263,1.183-0.49,1.821-0.682c0.639-0.191,1.296-0.341,1.971-0.447c0.674-0.106,1.331-0.16,1.97-0.16
			c2.428,0,4.263,0.682,5.506,2.045c1.242,1.363,1.863,3.394,1.863,6.092v14.185H140.038z M134.415,38.023
			c-0.98,0.143-1.818,0.32-2.514,0.533s-1.271,0.5-1.725,0.862c-0.455,0.362-0.788,0.81-1.002,1.342
			c-0.213,0.532-0.319,1.189-0.319,1.97c0,0.583,0.104,1.122,0.31,1.619c0.205,0.497,0.504,0.927,0.895,1.288
			c0.39,0.362,0.865,0.644,1.427,0.842c0.561,0.199,1.196,0.298,1.906,0.298c0.965,0,1.853-0.184,2.662-0.554
			c0.81-0.369,1.509-0.88,2.098-1.533c0.59-0.653,1.051-1.434,1.385-2.343c0.334-0.908,0.501-1.896,0.501-2.961v-2.151
			L134.415,38.023z"/>
	</g>
	<g enable-background="new    ">
		<path d="M160.817,47.63c-1.618,0.979-3.578,1.483-5.878,1.512c-1.563,0.015-2.968-0.255-4.218-0.81
			c-1.249-0.554-2.314-1.323-3.194-2.311c-0.881-0.986-1.555-2.151-2.023-3.493s-0.703-2.801-0.703-4.377
			c0-1.633,0.248-3.17,0.745-4.611c0.497-1.44,1.222-2.697,2.173-3.77c0.951-1.072,2.115-1.92,3.493-2.545
			c1.377-0.625,2.953-0.937,4.729-0.937c1.803,0,3.45,0.348,4.941,1.044v2.896c-1.591-1.051-3.309-1.576-5.154-1.576
			c-1.293,0-2.442,0.245-3.451,0.735c-1.008,0.49-1.856,1.158-2.545,2.002s-1.214,1.831-1.576,2.96s-0.543,2.325-0.543,3.589
			c0,1.165,0.152,2.279,0.458,3.344c0.305,1.065,0.773,2.006,1.405,2.822s1.431,1.467,2.396,1.949s2.102,0.724,3.408,0.724
			c2.044,0,3.89-0.61,5.537-1.831V47.63z"/>
	</g>
	<g enable-background="new    ">
		<path d="M176.519,49.156l-10.031-10.628h-0.086v10.628h-2.726V16.867h2.726v20.639h0.086l9.521-10.16h3.557l-10.224,10.542
			l11.033,11.268H176.519z"/>
	</g>
	<g enable-background="new    ">
		<path d="M7.76,18.469c2.158-0.367,5.188-0.643,9.458-0.643c4.315,0,7.392,0.826,9.458,2.479c1.974,1.562,3.306,4.132,3.306,7.163
			c0,3.031-1.01,5.602-2.847,7.346c-2.387,2.25-5.923,3.26-10.055,3.26c-0.918,0-1.745-0.046-2.387-0.138v11.065H7.76V18.469z
			 M14.693,32.519c0.597,0.138,1.332,0.184,2.341,0.184c3.719,0,6.015-1.882,6.015-5.05c0-2.846-1.974-4.545-5.463-4.545
			c-1.423,0-2.388,0.138-2.893,0.276V32.519z"/>
	</g>
	<g enable-background="new    ">
		<path d="M43.528,49.002l-0.414-2.25h-0.138c-1.469,1.791-3.765,2.755-6.428,2.755c-4.545,0-7.254-3.306-7.254-6.887
			c0-5.831,5.234-8.632,13.177-8.586v-0.321c0-1.194-0.643-2.893-4.086-2.893c-2.295,0-4.729,0.78-6.198,1.698l-1.286-4.499
			c1.561-0.873,4.637-1.975,8.724-1.975c7.484,0,9.872,4.408,9.872,9.688v7.806c0,2.158,0.092,4.225,0.321,5.464H43.528z
			 M42.702,38.396c-3.673-0.046-6.52,0.827-6.52,3.536c0,1.79,1.193,2.662,2.754,2.662c1.745,0,3.168-1.147,3.627-2.57
			c0.092-0.367,0.138-0.781,0.138-1.194V38.396z"/>
	</g>
	<g enable-background="new    ">
		<path d="M51.563,16.403h6.979v32.599h-6.979V16.403z"/>
	</g>
	<g enable-background="new    ">
		<path d="M60.747,33.713c0-2.801-0.092-5.188-0.184-7.163h5.877l0.321,3.03h0.138c0.964-1.423,2.938-3.536,6.795-3.536
			c2.893,0,5.188,1.469,6.152,3.811h0.092c0.827-1.148,1.836-2.066,2.893-2.709c1.24-0.734,2.617-1.102,4.27-1.102
			c4.315,0,7.576,3.03,7.576,9.734v13.223h-6.796V36.789c0-3.26-1.056-5.143-3.306-5.143c-1.607,0-2.755,1.102-3.214,2.434
			c-0.184,0.505-0.275,1.239-0.275,1.791v13.131h-6.795v-12.58c0-2.847-1.01-4.775-3.214-4.775c-1.791,0-2.847,1.378-3.26,2.525
			c-0.229,0.551-0.275,1.193-0.275,1.745v13.085h-6.795V33.713z"/>
	</g>
	<rect x="184.885" y="15.682" width="10.115" height="10.117"/>
	<rect x="184.885" y="27.191" opacity="0.7" enable-background="new    " width="10.115" height="10.116"/>
	<rect x="184.885" y="38.885" opacity="0.3" enable-background="new    " width="10.115" height="10.116"/>
</g>
</svg>
